<?xml version="1.0" encoding="UTF-8" standalone="no"?>
<!-- Created with Inkscape (http://www.inkscape.org/) -->

<svg
   xmlns:dc="http://purl.org/dc/elements/1.1/"
   xmlns:cc="http://creativecommons.org/ns#"
   xmlns:rdf="http://www.w3.org/1999/02/22-rdf-syntax-ns#"
   xmlns:svg="http://www.w3.org/2000/svg"
   xmlns="http://www.w3.org/2000/svg"
   xmlns:sodipodi="http://sodipodi.sourceforge.net/DTD/sodipodi-0.dtd"
   xmlns:inkscape="http://www.inkscape.org/namespaces/inkscape"
   version="1.1"
   id="svg2"
   xml:space="preserve"
   width="1600"
   height="1600"
   viewBox="0 0 1600 1600"
   sodipodi:docname="sil_icon.svg"
   inkscape:export-filename="C:\Users\glavic_a\Downloads\sil_icon.png"
   inkscape:export-xdpi="36.73"
   inkscape:export-ydpi="36.73"
   inkscape:version="0.92.4 (5da689c313, 2019-01-14)"><metadata
     id="metadata8"><rdf:RDF><cc:Work
         rdf:about=""><dc:format>image/svg+xml</dc:format><dc:type
           rdf:resource="http://purl.org/dc/dcmitype/StillImage" /><dc:title></dc:title></cc:Work></rdf:RDF></metadata><defs
     id="defs6"><clipPath
       clipPathUnits="userSpaceOnUse"
       id="clipPath28"><path
         d="M 2762.89,4839.59 H 4224.43 V 2661.85 H 2762.89 Z"
         id="path26"
         inkscape:connector-curvature="0" /></clipPath></defs><sodipodi:namedview
     pagecolor="#ffffff"
     bordercolor="#666666"
     borderopacity="1"
     objecttolerance="10"
     gridtolerance="10"
     guidetolerance="10"
     inkscape:pageopacity="0"
     inkscape:pageshadow="2"
     inkscape:window-width="1965"
     inkscape:window-height="1140"
     id="namedview4"
     showgrid="false"
     inkscape:zoom="0.417193"
     inkscape:cx="895.86366"
     inkscape:cy="1109.8937"
     inkscape:window-x="2260"
     inkscape:window-y="92"
     inkscape:window-maximized="0"
     inkscape:current-layer="g10" /><g
     id="g10"
     inkscape:groupmode="layer"
     inkscape:label="ink_ext_XXXXXX"
     transform="matrix(1.3333333,0,0,-1.3333333,0,1600)"><g
       id="g12"
       transform="scale(0.1)"><path
         d="m 3699.19,2662.13 c -14.58,-9.46 -29.53,-18.74 -44.87,-27.55 -231.95,-134.9 -525.81,-194.37 -865.21,-116.45 -342.71,-209.79 -539.34,-38.81 -551.94,84.55 -341,-241.79 -559.32,-1.62 -579.58,77.15 -94.48,-95.52 -349.15,-213.48 -392.88,-92.49 -48.67,134.44 391.56,845.33 1437.31,1231.87 83.02,30.58 169.74,59.27 260.44,85.4 116.07,33.42 238.66,62.86 367.7,87.19 -17.61,150.62 163.59,631.65 241.89,772.15 416.08,348.38 615.65,-584.8 651.53,-1133.99 0.19,-4.35 0.57,-8.71 0.76,-13.07 16.38,-336.65 -179.03,-731.15 -525.15,-954.76"
         style="fill:#544d6a;fill-opacity:1;fill-rule:nonzero;stroke:none"
         id="path16"
         inkscape:connector-curvature="0" /><path
         d="M 2521.47,3747.07 C 1718.94,3399.63 1322.74,2868.42 1267.45,2656.92 c -18.37,-106.03 238.29,-83.02 430.28,153.28 30.4,-150.82 210.37,-334.48 596.34,-103.38 56.8,-213.68 372.82,-174.2 444.96,-35.98 514.54,-90.51 1160.39,233.55 1162.48,793.26 1.89,488.89 -361.18,663.64 -1380.04,282.97"
         style="fill:#675e7b;fill-opacity:1;fill-rule:nonzero;stroke:none"
         id="path18"
         inkscape:connector-curvature="0" /><path
         d="m 1305.89,2623.32 c 179.69,201.55 428.2,431.98 719.88,611.58 557.24,342.99 994.91,435.21 1277.13,575.03 110.29,54.73 -116.92,64.01 -13.64,109.73 C 2471.3,3808.9 1490.97,3183.68 1305.89,2623.32"
         style="fill:#817896;fill-opacity:1;fill-rule:nonzero;stroke:none"
         id="path20"
         inkscape:connector-curvature="0" /><g
         id="g22"><g
           id="g24"
           clip-path="url(#clipPath28)"><path
             d="m 3699.19,2662.13 c -586.68,352.56 -834.24,934.41 -935.45,1180.94 83.03,30.67 108.02,35.41 198.72,61.54 116.07,33.42 238.66,62.86 367.7,87.19 -17.61,150.62 163.59,631.65 241.89,772.15 416.08,348.38 615.65,-584.8 651.53,-1133.99 0.19,-4.35 0.57,-8.71 0.76,-13.07 16.38,-336.65 -179.02,-731.15 -525.15,-954.76"
             style="fill:#47435b;fill-opacity:1;fill-rule:nonzero;stroke:none"
             id="path30"
             inkscape:connector-curvature="0" /></g></g><path
         d="m 3571.39,4763.85 -16.42,9.15 c -19.32,-34.67 -43.97,-87.91 -70.46,-151.52 -39.69,-95.37 -83.26,-213.69 -117.03,-324.7 -16.89,-55.51 -31.33,-109.18 -41.6,-157.36 -10.25,-48.24 -16.41,-90.83 -16.45,-125.19 0.01,-8.73 0.41,-16.95 1.31,-24.7 l 18.66,2.18 -3.48,18.47 c -721.09,-136.12 -1241.38,-429.13 -1581.55,-715.54 -170.1,-143.23 -295.2,-284.76 -378.1,-404.59 -41.46,-59.94 -72.37,-114.43 -93.11,-161.32 -20.68,-47 -31.5,-86.01 -31.63,-117.3 0.01,-10.97 1.38,-21.14 4.75,-30.49 4.02,-11.13 9.7,-21.02 16.84,-29.36 10.69,-12.56 24.51,-21.4 39.66,-26.82 15.17,-5.45 31.7,-7.7 49.01,-7.71 26.48,0.02 54.97,5.26 84.17,13.91 43.77,13.01 89.12,33.8 130.17,57.8 41.05,24.05 77.7,51.18 104.06,77.75 l -13.35,13.23 -18.19,-4.72 c 4.52,-17.1 14.79,-36.54 30.4,-57.66 23.44,-31.47 59.14,-65.88 106.43,-92.75 47.23,-26.85 106.17,-45.98 174.88,-45.97 85.67,-0.03 185.85,29.78 296.92,108.52 l -10.86,15.33 -18.7,-1.92 c 4.89,-46.47 31.62,-96.04 77.74,-134.59 46.14,-38.53 112.1,-65.55 194.85,-65.51 85.6,0.01 188.79,28.68 307.85,101.54 l -9.81,16.03 -4.2,-18.32 c 104.67,-24.02 205.23,-35.18 301.13,-35.18 354.18,-0.05 644.23,152.35 844.9,367.32 200.71,215.02 313.09,492.4 313.21,745.57 0,18.01 -0.57,35.91 -1.72,53.65 -15.36,234.53 -60.17,537.9 -139.17,784.36 -39.58,123.26 -87.56,232.31 -145.9,311.97 -29.2,39.82 -61.08,72.37 -96.33,95.26 -35.18,22.89 -74.04,35.93 -115.36,35.89 -29.3,0.01 -59.63,-6.5 -90.56,-19.79 -30.95,-13.3 -62.56,-33.32 -95.03,-60.52 l -2.65,-2.22 -1.7,-3.03 16.42,-9.15 12.06,-14.41 c 30.23,25.32 58.85,43.26 85.73,54.79 26.9,11.54 51.99,16.74 75.73,16.74 33.42,-0.03 64.61,-10.23 94.9,-29.83 52.93,-34.18 101.98,-98.21 144.67,-182.04 64.2,-125.66 114.44,-294.89 150.75,-470.5 36.37,-175.64 59,-357.81 68.94,-509.96 1.09,-16.9 1.64,-33.99 1.64,-51.21 0.11,-242.03 -108.49,-511.7 -303.1,-719.92 -194.66,-208.28 -474.27,-355.32 -817.43,-355.38 -92.99,0 -190.69,10.81 -292.72,34.22 l -7.47,1.72 -6.55,-4 c -114.64,-70.15 -211.13,-96.02 -288.23,-96.01 -74.59,0.04 -131.39,24 -170.78,56.78 -39.41,32.75 -60.95,74.79 -64.42,109.57 l -3.3,32.02 -26.26,-18.61 c -106.2,-75.18 -198.33,-101.56 -275.19,-101.59 -82.2,0.02 -147.94,30.29 -195.19,67.03 -23.58,18.35 -42.42,38.32 -55.97,56.54 -13.56,18.11 -21.73,34.88 -24.18,44.65 l -8.29,31.99 -23.25,-23.48 c -30.73,-31.13 -81.85,-66.48 -136.25,-93.26 -27.2,-13.43 -55.26,-24.79 -81.96,-32.71 -26.69,-7.94 -52.05,-12.37 -73.48,-12.35 -18.73,-0.02 -34.22,3.37 -45.55,9.63 -5.71,3.15 -10.47,6.97 -14.54,11.72 -4.05,4.75 -7.45,10.49 -10.09,17.75 -1.45,3.97 -2.51,9.93 -2.49,17.69 -0.02,11.08 2.12,25.68 6.8,42.9 8.76,32.36 26.36,73.94 53.14,121.78 93.73,167.75 299.35,412.31 627.79,641.81 328.47,229.61 779.82,444.65 1366.04,555.32 l 17.21,3.25 -2.03,17.39 c -0.7,5.96 -1.05,12.79 -1.05,20.35 -0.07,39.86 10.12,98.95 26.92,165.95 25.15,100.65 64.88,219.83 105.23,326.06 20.18,53.12 40.51,103.03 59.24,145.8 18.71,42.74 35.87,78.42 49.39,102.65 l -16.41,9.16 12.06,-14.41 -12.06,14.41"
         style="fill:#07090b;fill-opacity:1;fill-rule:nonzero;stroke:none"
         id="path32"
         inkscape:connector-curvature="0" /><path
         d="m 10985.1,8450.38 c -25.3,-159.43 -74.8,-260.73 -74.8,-260.73 -234.5,-816.45 -1584.37,-1430.88 -1584.37,-1430.88 0,0 -97.14,-169.74 -75.36,-379.82 40.51,-283.73 121.84,-718.74 83.4,-1241.62 -10.88,-146.55 -31.05,-300.02 -64.09,-458.97 -54.53,-261.2 -143.9,-537.27 -283.92,-821.94 C 8280.46,2568.69 6816.27,2074.79 4399.58,2780.28 3617.87,3008.63 2982.43,3533.5 2663.01,4287.84 c -471.56,1113.24 -218.03,2279.79 163.02,3378.08 14.3,40.99 201.75,410.97 182.62,442.31 l 789.76,0.66 1633.94,1.42 c 35.5,-253.53 91.93,-504.88 178.08,-746.2 125.82,-352.18 319.33,-697.92 610.63,-939.81 234.13,-194.46 505.83,-344.61 778.77,-477.14 291.98,-141.63 608.18,-230.63 934.7,-218.61 632.03,23.68 628.72,1173.28 628.72,1173.28 0,0 -5.12,8.71 -22.62,26.12 -42.51,42.23 -157.54,135.48 -448.57,279.19 -856.87,450.36 -946.81,1117.13 -935.26,1430.5 0.38,12.97 1.04,25.84 1.89,38.72 19.03,297.64 130.66,558.18 300.02,525.43 176.66,-34.28 166.44,-478.86 251.83,-552.89 176.66,-113.89 689.4,-371.97 903.45,-448.65 213.96,-76.68 262.44,-391.56 415.8,-375.47 153.46,16.19 80.66,314.88 244.54,448.28 86.05,70.05 973.37,315.82 1115.17,367.42 141.8,51.59 154.8,238.48 193.3,341.57 38.7,103.19 174.1,290.17 296.6,154.7 62.5,-123.17 95.8,-243.69 110.6,-355.02 16.5,-124.68 9.9,-238.01 -4.9,-331.35"
         style="fill:#675e7b;fill-opacity:1;fill-rule:nonzero;stroke:none"
         id="path34"
         inkscape:connector-curvature="0" /><path
         d="m 10985.1,8450.38 c -25.3,-159.43 -74.8,-260.73 -74.8,-260.73 -234.5,-816.45 -1584.37,-1430.88 -1584.37,-1430.88 0,0 -97.14,-169.74 -75.36,-379.82 40.51,-283.73 121.84,-718.74 83.4,-1241.62 -9.65,39.48 -13.63,81.04 -10.98,124.87 32.38,534.33 -307.69,1489.76 -307.69,1489.76 0,0 -139.35,324.44 -599.08,502.04 -1169.1,540.68 -1186.62,1220.42 -1138.05,1285.27 48.57,64.76 201.65,62.01 255.99,-155.16 36.92,-148.17 628.53,-370.27 806.61,-418.83 230.43,-96.38 237.34,-468.44 593.6,-533.2 356.33,-64.75 458.58,340.25 523.25,502.14 62.1,116.36 480.74,129.42 934.08,372.35 453.5,242.83 268.1,332.58 374.4,474.97 0.8,0.85 1.8,1.79 2.7,2.65 86.6,85.01 231,-31.15 230.8,-152.42 -0.1,-66.09 -5.8,-127.15 -14.5,-181.39"
         style="fill:#544d6a;fill-opacity:1;fill-rule:nonzero;stroke:none"
         id="path36"
         inkscape:connector-curvature="0" /><path
         d="M 8400.61,5780.62 C 8092.92,5327.15 7202.33,5489.13 6246.9,6169.25 5291.48,6849.37 5432.92,8110.5 5432.92,8110.5 c 35.5,-253.43 92.02,-504.79 178.08,-746.11 125.82,-352.18 319.33,-698.01 610.63,-939.81 234.22,-194.45 505.83,-344.6 778.87,-477.14 291.97,-141.73 608.17,-230.72 934.7,-218.6 632.03,23.67 628.71,1173.17 628.71,1173.17 0,0 -5.11,8.81 -22.72,26.23 l 1.98,10.7 c 85.12,-39.67 135.67,-137.56 131.03,-231.38 -10.88,-216.52 -61.35,-614.14 -273.59,-926.94"
         style="fill:#817896;fill-opacity:1;fill-rule:nonzero;stroke:none"
         id="path38"
         inkscape:connector-curvature="0" /><path
         d="m 10985.1,8450.38 c -1.6,5.87 -2,12.4 -1.5,19.5 13,149.01 -51.7,595.96 -181.3,615.46 -129.6,19.41 -246.2,-408.13 -317.4,-472.88 -71.3,-64.76 -1036.47,-395.17 -1120.73,-414.57 -84.26,-19.51 -84.26,-511.8 -291.49,-550.61 -207.34,-38.92 -414.57,317.33 -498.73,414.56 -84.26,97.13 -848.65,466.45 -939.34,557.05 -90.69,90.69 -58.32,498.83 -233.17,479.33 -152.9,-16.95 -226.56,-340.45 -242.75,-421.86 19.03,297.64 130.66,558.18 300.02,525.43 176.66,-34.28 166.44,-478.86 251.83,-552.89 176.66,-113.89 689.4,-371.96 903.45,-448.65 213.96,-76.68 262.44,-391.56 415.8,-375.46 153.46,16.18 80.66,314.87 244.54,448.27 86.05,70.05 973.37,315.82 1115.17,367.42 141.8,51.6 154.8,238.48 193.3,341.57 38.7,103.19 174.1,290.17 296.6,154.7 132.2,-261.01 133.9,-509.43 105.7,-686.37"
         style="fill:#817896;fill-opacity:1;fill-rule:nonzero;stroke:none"
         id="path40"
         inkscape:connector-curvature="0" /><path
         d="m 9270.63,4678.64 c -54.53,-261.2 -143.89,-537.26 -283.91,-822.04 -705.5,-1287.63 -2169.7,-1781.53 -4586.3,-1076.03 -781.79,228.25 -1417.23,753.2 -1736.66,1507.55 -471.56,1113.25 -218.03,2279.8 163.12,3378.09 14.2,40.99 201.66,410.97 182.53,442.3 l 231.85,-99.59 c -202.78,-689.4 -364.29,-2332.05 364.49,-3425.24 705.02,-1057.67 2793.67,-1651.92 3789.62,-1481.89 897.12,153.17 1616.91,779.43 1875.26,1576.85"
         style="fill:#544d6a;fill-opacity:1;fill-rule:nonzero;stroke:none"
         id="path42"
         inkscape:connector-curvature="0" /><path
         d="m 3009.03,8108.61 -16.07,-9.74 8.63,5.24 -9.98,-1.96 c 0.09,-0.42 0.31,-1.53 1.35,-3.28 l 8.63,5.24 -9.98,-1.96 3.54,0.69 -3.58,-0.48 0.04,-0.21 3.54,0.69 -3.58,-0.48 0.43,0.05 -0.43,-0.04 v -0.01 l 0.43,0.05 -0.43,-0.04 0.02,-0.58 c 0.03,-1.5 -0.39,-5.31 -1.49,-10.25 -2.02,-9.37 -6.22,-22.94 -12.01,-38.97 -20.29,-56.36 -59.79,-143.3 -95.48,-219.65 -17.86,-38.22 -34.78,-73.87 -47.97,-102.04 -6.6,-14.09 -12.27,-26.3 -16.68,-36.1 -4.43,-9.88 -7.52,-17 -9.38,-22.28 l -0.02,-0.04 c -233.94,-674.35 -420.38,-1375.4 -420.42,-2075.54 -0.01,-441.61 74.29,-882.87 257.75,-1316.03 321.69,-759.83 962.22,-1288.71 1748.7,-1518.18 751.53,-219.41 1411.65,-323.23 1986.35,-323.24 638.26,-0.01 1171.34,128.16 1606.17,368.58 434.85,240.37 771,592.93 1015.71,1039.62 l 0.17,0.31 0.21,0.43 c 282.36,574.12 359.96,1113.63 359.93,1567.16 0,400.97 -60.59,735.1 -93.58,966.32 l -18.6,-2.65 18.69,1.94 c -2.15,20.61 -3.11,40.84 -3.11,60.55 -0.02,87.43 19.05,164.83 38.16,220.21 9.55,27.68 19.09,49.85 26.19,65 3.55,7.57 6.49,13.39 8.52,17.27 1.01,1.94 1.8,3.39 2.31,4.33 l 0.58,1.04 0.12,0.22 0.02,0.03 -16.32,9.33 7.79,-17.11 c 0.63,0.31 338.91,154.23 707.2,410.92 184.2,128.37 375.9,282.43 536.7,456.24 160.8,173.82 291,367.47 350.8,575.63 l -18.1,5.19 16.9,-8.26 c 0.7,1.59 91.3,186.84 91.4,452.21 0,151.22 -29.6,328.53 -122.3,511.64 l -1.2,2.25 -1.7,1.87 c -16.5,18.28 -33.8,31.73 -51.7,40.61 -17.9,8.88 -36.4,13.05 -54.5,13.03 -27.2,-0.01 -53,-9.25 -76.3,-23.44 -34.9,-21.37 -65.2,-53.92 -90,-88.57 -24.8,-34.7 -44,-71.5 -55.5,-102.35 v 0.02 c -10.2,-27.19 -18.3,-58.58 -27.2,-91.32 -13.2,-49.06 -28.1,-101.03 -51.8,-144.28 -11.9,-21.63 -25.8,-41.05 -42.6,-57.16 -16.9,-16.11 -36.6,-28.99 -60.7,-37.77 -17,-6.21 -46.4,-15.69 -84.2,-27.44 -132.7,-41.2 -371.52,-110.85 -586.57,-177.86 -107.55,-33.51 -209.18,-66.37 -288.92,-94.78 -39.88,-14.22 -74.28,-27.31 -101.42,-38.94 -13.58,-5.82 -25.35,-11.26 -35.2,-16.4 -9.89,-5.17 -17.78,-9.87 -24.23,-15.08 -44.22,-36.01 -72.02,-82.85 -91.35,-131.7 -14.53,-36.68 -24.43,-74.69 -33.03,-111.05 -12.8,-54.5 -23.01,-105.52 -39.38,-141.65 -8.12,-18.1 -17.57,-32.21 -28.73,-41.98 -11.23,-9.73 -24.06,-15.78 -42.17,-17.78 -3.18,-0.34 -6.29,-0.5 -9.32,-0.5 -14.79,0.03 -28.08,3.73 -41.47,10.87 -23.35,12.39 -46.46,36.28 -69.79,67.08 -35.13,46.12 -70.67,106.86 -115.14,162.9 -22.27,28.02 -46.85,54.92 -75.08,78.17 -28.21,23.25 -60.12,42.85 -96.68,55.95 -52.62,18.85 -124.52,49.22 -205.16,85.85 -121,54.94 -261.88,124.02 -388.9,189.96 -126.98,65.91 -240.35,128.86 -305.55,170.94 l -10.19,-15.79 12.31,14.2 c -7.15,6.05 -15.55,18.82 -23.12,36.78 -13.46,31.42 -25.01,77.66 -36.52,129.12 -17.38,77.32 -34.95,166.56 -63.49,240.83 -14.32,37.15 -31.37,70.72 -53.48,97.36 -11.07,13.31 -23.45,24.88 -37.44,33.98 -13.96,9.11 -29.56,15.7 -46.52,18.97 -10.83,2.1 -21.55,3.14 -32.1,3.14 -22.68,0.01 -44.52,-4.84 -64.87,-13.8 -35.69,-15.72 -66.75,-43.6 -93.61,-79.8 -40.25,-54.39 -71.57,-127.96 -94.11,-212.58 -22.49,-84.62 -36.06,-180.32 -39.66,-278.78 -0.57,-15.48 -0.89,-31.81 -0.89,-48.92 0,-167.04 30.68,-408.68 164.59,-662.85 133.85,-254.18 371.07,-520.37 781.6,-736.04 l 0.14,-0.07 0.28,-0.14 c 205.02,-101.28 321.85,-177.1 386.89,-227.03 32.51,-24.96 52.09,-43.43 63.29,-55.31 5.61,-5.94 9.12,-10.23 11.12,-12.86 1.01,-1.31 1.63,-2.2 1.95,-2.68 l 0.26,-0.4 6.87,4.32 -7,-4.09 0.13,-0.23 6.87,4.32 -7,-4.09 16.23,9.48 -18.79,0.37 -0.01,-0.74 c 0.05,-10.75 -0.89,-297.02 -79.12,-581.38 -39.03,-142.16 -97.47,-283.64 -183.27,-389.72 -42.89,-53.08 -92.5,-97.33 -149.95,-129.02 -57.48,-31.68 -122.83,-50.97 -198.19,-53.81 -18.6,-0.69 -37.32,-1.04 -56.13,-1.04 -311.69,-0.05 -651.73,94.56 -966.62,244.97 -314.91,150.35 -604.69,356.44 -816.36,577.81 -154.77,161.86 -274.82,359 -369.36,562.58 -2.09,4.49 -5.28,12.38 -9.12,22.71 -14.48,38.95 -38.69,113.02 -66.63,202.99 -41.93,135.03 -92.44,306.28 -132.41,451.63 -19.98,72.67 -37.33,138.89 -49.64,190.73 -6.15,25.91 -11.04,48.24 -14.35,65.82 -1.65,8.79 -2.91,16.4 -3.73,22.57 -0.83,6.15 -1.2,10.96 -1.19,13.58 l 0.07,1.72 v 0.02 l -11.56,1.91 9.7,-6.29 c 1.82,2.99 1.75,4.15 1.86,4.38 l -11.56,1.91 9.7,-6.29 -13.89,9.01 8.71,-14.04 c 2.62,1.63 4.24,3.59 5.18,5.03 l -13.89,9.01 8.71,-14.04 -9.06,14.61 0.04,-17.2 c 2.93,-0.04 6.45,0.94 9.02,2.59 l -9.06,14.61 0.04,-17.2 -0.06,37.59 -2456.92,-2.11 17.26,-28.51 16.07,9.74 0.02,-18.79 2423.6,2.08 -0.06,37.59 c -2.69,0.01 -5.71,-0.6 -8.36,-1.81 -4.72,-2.14 -7.67,-5.63 -9.26,-8.3 -2.4,-4.13 -2.9,-7.07 -3.37,-9.72 -0.4,-2.63 -0.5,-5.01 -0.51,-7.5 0.03,-7.67 1.11,-16.67 2.93,-28.13 6.88,-42.51 25.16,-117.48 49.43,-208.54 36.41,-136.43 86.22,-308.03 130.47,-453.21 22.13,-72.59 42.86,-138.55 59.85,-190.25 8.5,-25.85 16.06,-48.13 22.42,-65.96 6.39,-17.88 11.44,-31.08 15.47,-39.78 95.75,-206.16 217.69,-406.82 376.28,-572.72 215.46,-225.25 508.48,-433.45 827.33,-585.74 318.86,-152.22 663.53,-248.59 982.81,-248.64 19.27,0 38.45,0.35 57.53,1.06 80.99,3 152.54,24.01 214.94,58.46 109.3,60.35 190.22,161.03 250.55,277.03 90.46,174.14 135.36,383.83 158.14,552.25 22.72,168.4 23.08,295.51 23.08,303.75 h -0.21 0.21 v 0 h -0.21 0.21 l 0.1,5.28 -2.66,4.57 c -1.73,2.9 -18.4,29.92 -86.06,81.88 -67.7,51.94 -186.51,128.83 -393.12,230.9 l -8.32,-16.85 8.74,16.64 c -404.53,212.66 -635.38,472.81 -765.84,720.29 -130.39,247.48 -160.26,482.8 -160.26,645.33 0,16.64 0.32,32.51 0.87,47.55 5.28,146.1 33.44,285.96 79.06,387.47 22.75,50.77 49.86,91.8 79.61,119.37 14.86,13.81 30.33,24.28 46.27,31.28 15.96,7 32.37,10.61 49.75,10.62 8.09,0 16.39,-0.79 24.96,-2.45 18.26,-3.57 34.04,-12.21 48.8,-25.86 25.8,-23.75 47.23,-63.49 64.48,-111.12 26.04,-71.43 43.14,-159.66 60.62,-236.56 8.78,-38.49 17.65,-74.19 28.22,-104.14 5.29,-14.99 11.01,-28.57 17.59,-40.48 6.6,-11.89 14.03,-22.23 23.38,-30.38 l 0.99,-0.86 1.13,-0.73 c 44.9,-28.96 110.31,-66.57 186.83,-108.13 114.74,-62.3 254.3,-133.34 385.4,-196.08 131.16,-62.75 253.6,-117.12 335.07,-146.34 48.55,-17.4 88.42,-48.12 123.53,-85.48 52.67,-55.99 93.61,-126.55 135.57,-184.64 21.07,-29.05 42.43,-55.11 66.88,-74.65 12.23,-9.76 25.29,-17.86 39.46,-23.54 14.14,-5.69 29.4,-8.87 45.41,-8.86 4.37,0 8.8,0.23 13.27,0.7 22.24,2.3 41.62,10.14 57.29,22.22 13.74,10.54 24.62,24.01 33.49,39.13 15.51,26.51 25.37,58.21 34.15,92.46 13.05,51.35 23.44,108.71 41.84,161.84 9.18,26.56 20.31,52.01 34.52,75.13 14.22,23.14 31.48,43.96 53.14,61.61 3.39,2.81 11.12,7.58 21.72,12.87 19.99,10.05 50.4,22.64 88.03,36.71 131.91,49.36 352.83,117.5 554.95,178.44 101.12,30.48 197.52,59.18 276.02,82.93 78.6,23.78 138.9,42.47 169,53.38 38.8,14.1 69.2,37.83 92.7,66.35 35.2,42.86 55.7,96.04 71.4,147.64 15.7,51.59 26.7,102.05 40.5,138.64 v 0.03 c 13.5,36.39 40.9,85.62 75.1,124.29 17,19.38 35.7,36.13 54.8,47.7 19,11.61 38.1,17.96 56.7,17.95 12.4,-0.02 24.8,-2.72 37.8,-9.13 13,-6.42 26.6,-16.7 40.6,-32.14 l 13.9,12.61 -16.8,-8.49 c 89.8,-177.23 118.3,-348.29 118.3,-494.66 0,-128.37 -22,-237.67 -44,-314.71 -11,-38.52 -22,-68.96 -30.2,-89.68 -4,-10.36 -7.4,-18.28 -9.8,-23.57 -1.2,-2.64 -2.1,-4.63 -2.7,-5.92 l -0.7,-1.43 -0.1,-0.33 v -0.05 l -0.8,-1.48 -0.4,-1.59 c -57.4,-200.11 -184,-389.46 -342.2,-560.48 -237.4,-256.58 -545.7,-471.6 -794.42,-622.07 -124.39,-75.25 -233.89,-134.41 -312.24,-174.73 -39.18,-20.16 -70.56,-35.6 -92.13,-46 -10.78,-5.19 -19.1,-9.13 -24.72,-11.76 -2.81,-1.31 -4.94,-2.3 -6.36,-2.95 -1.42,-0.66 -2.1,-0.97 -2.1,-0.97 l -5.52,-2.51 -3.01,-5.27 c -0.77,-1.57 -80.7,-140.95 -80.86,-326.75 0,-20.94 1.03,-42.47 3.32,-64.44 l 0.03,-0.34 0.05,-0.37 c 33.19,-232.32 93.21,-563.71 93.21,-961.01 -0.03,-449.3 -76.7,-982.41 -356.08,-1550.58 l 16.87,-8.29 -16.48,9.03 C 8728.01,3424.44 8397.24,3077.79 7968.93,2840.94 7540.6,2604.13 7014.25,2477.07 6380.94,2477.06 c -570.17,-0.01 -1226.9,103.07 -1975.82,321.73 -776.92,226.87 -1407.45,747.91 -1724.62,1496.76 -181.27,428.05 -254.76,863.94 -254.77,1301.37 -0.04,693.4 184.95,1390.64 418.34,2063.22 l -0.01,-0.03 c 0.55,1.59 1.91,4.99 3.82,9.4 7.22,16.72 22.22,48.54 40.46,87.23 27.39,58.1 62.22,132.04 90.31,196.96 14.05,32.48 26.42,62.68 35.41,87.81 4.49,12.57 8.15,23.87 10.76,33.76 2.59,9.98 4.29,18.25 4.36,26.52 -0.01,2.42 -0.16,4.89 -0.69,7.6 -0.54,2.69 -1.43,5.71 -3.39,8.96 l -16.07,-9.74 0.02,-18.79 -0.02,18.79"
         style="fill:#07090b;fill-opacity:1;fill-rule:nonzero;stroke:none"
         id="path44"
         inkscape:connector-curvature="0" /><path
         d="M 5459.15,7950.5 3923.56,7429.34 C 3351.75,7342.9 3595.34,7327 3107.5,7327 c -499.97,-21.21 -688.46,546.54 -818.54,938.39 -216.42,401.88 -634.97,596.62 -397.81,866.71 81.23,92.5 301.34,147.12 387.39,253.73 v 0.19 c 33.99,41.74 65.9,84.06 96.67,126.48 295.37,406.04 489.17,813.3 1327.87,855.2 720.35,22.8 1276.55,-398.22 1558.01,-1002.8 111.34,-239.14 168.14,-541.42 192.19,-821.28 19.69,-227.78 17.7,-440.89 5.87,-593.12"
         style="fill:#675e7b;fill-opacity:1;fill-rule:nonzero;stroke:none"
         id="path46"
         inkscape:connector-curvature="0" /><path
         d="m 5453.47,8543.15 -3.79,-3.5 c 0,0 -272.84,1543.65 -1407.11,1679.95 -875.81,105.4 -1450.85,-449.31 -1667.27,-707.57 295.38,406.04 489.17,813.37 1327.97,855.27 720.26,22.8 1276.46,-398.2 1558.01,-1002.87 111.34,-239.14 168.05,-541.33 192.19,-821.28"
         style="fill:#817896;fill-opacity:1;fill-rule:nonzero;stroke:none"
         id="path48"
         inkscape:connector-curvature="0" /><path
         d="m 5260.33,9364.9 c -100.07,214.91 -234.88,406.43 -399.51,563.4 483.87,-597.1 485.29,-1333.08 585.54,-1976.85 26.42,339.4 16,979.57 -186.03,1413.45"
         style="fill:#544d6a;fill-opacity:1;fill-rule:nonzero;stroke:none"
         id="path50"
         inkscape:connector-curvature="0" /><path
         d="m 3316.66,7342.47 c -61.58,-6.44 -117.15,-9.39 -167.39,-9.39 -104.23,0 -185.43,12.7 -249.81,33.22 -96.54,30.88 -155.56,78.79 -199.62,130.75 -44.05,51.99 -72.35,108.48 -105.63,155.93 -79.13,112.31 -128.71,230.26 -169.72,338.85 -41.11,108.6 -73.24,207.7 -119.65,282.88 l -15.98,-9.9 16.55,8.91 c -86.98,161.52 -205.29,289.11 -300.64,400.31 -47.69,55.56 -89.61,107.02 -119.11,155.83 -29.58,48.87 -46.45,94.55 -46.42,139.3 0.02,23.79 4.67,47.58 15.17,72.39 10.51,24.78 26.97,50.59 50.76,77.68 18.1,20.69 45.59,40.65 78.16,59.89 48.85,28.96 108.77,56.45 165.11,86.9 56.32,30.58 109.36,63.88 144.72,107.43 90.32,111.8 166.49,226.11 244.24,335.02 116.66,163.45 236.62,314.43 412.64,428.93 176.03,114.6 408.94,193.8 753.97,211 l -0.93,18.8 0.59,-18.8 c 18.52,0.6 36.93,0.9 55.23,0.9 342.81,0 645.79,-102.5 897.44,-277.7 251.6,-175.19 451.79,-423.41 587.62,-715.1 77.01,-165.42 128.01,-362.59 159.79,-561.66 31.8,-199.06 44.47,-400.03 45.41,-573.2 0.01,-1.75 0.01,-3.52 0.01,-5.31 0,-227.86 -83,-449.01 -236.87,-616.96 l -0.12,-0.13 c -4.79,-5.33 -9.98,-10.8 -15.28,-16.39 -7.14,-7.53 -6.83,-19.42 0.7,-26.56 7.53,-7.15 19.43,-6.83 26.57,0.7 5.3,5.58 10.71,11.28 15.96,17.13 l -0.12,-0.13 c 160.45,175.14 246.74,405.39 246.74,642.34 0,1.82 0,3.66 -0.01,5.51 -0.96,174.84 -13.71,377.51 -45.88,578.93 -32.2,201.42 -83.73,401.58 -162.83,571.59 -138.33,297.08 -342.6,550.69 -600.21,730.14 -257.58,179.4 -568.57,284.4 -918.92,284.4 -18.7,0 -37.5,-0.3 -56.42,-0.9 h -0.17 -0.17 c -233.21,-11.7 -417.78,-51.4 -569.02,-111.9 -226.93,-90.6 -378.12,-228.1 -505.1,-383.44 -127.05,-155.4 -230.66,-328.52 -364.09,-493.59 -19.54,-24.23 -47.86,-46.63 -80.91,-67.53 -49.57,-31.43 -109.45,-59.47 -165.07,-88.46 -27.83,-14.52 -54.62,-29.3 -78.69,-45.13 -24.06,-15.86 -45.45,-32.73 -62.33,-51.92 -25.91,-29.51 -44.75,-58.65 -57.12,-87.81 -12.37,-29.13 -18.17,-58.28 -18.15,-87.06 0.03,-54.42 20.32,-106.63 51.84,-158.76 47.42,-78.23 120.65,-157.72 197.72,-247.59 77.09,-89.8 158.02,-189.7 221.09,-306.9 l 0.27,-0.49 0.3,-0.5 c 42.87,-69 75.17,-166.87 116.45,-276.37 41.38,-109.51 92.14,-230.8 174.15,-347.21 20.64,-29.26 40.62,-65 65.58,-102.24 37.4,-55.83 86.64,-115.16 167.38,-159.63 80.72,-44.54 192,-74 352.83,-73.98 51.71,0 108.58,3.04 171.3,9.59 10.32,1.08 17.81,10.33 16.73,20.65 -1.08,10.32 -10.32,17.81 -20.64,16.73"
         style="fill:#07090b;fill-opacity:1;fill-rule:nonzero;stroke:none"
         id="path52"
         inkscape:connector-curvature="0" /><path
         d="m 2323.61,8617 c 225.51,-242.74 433.6,-970.01 789.37,-983.07 274.27,-10.04 518.33,602.3 543.23,1024.25 C 3212.68,8630.06 2323.61,8617 2323.61,8617"
         style="fill:#a31b21;fill-opacity:1;fill-rule:nonzero;stroke:none"
         id="path54"
         inkscape:connector-curvature="0" /><path
         d="m 3656.59,8657.71 c -36.64,-0.95 -248.61,41.08 -352.84,30.96 -264.7,-61.73 -395.92,-689.69 -16.57,-980.81 196.92,174.58 350,620.29 369.41,949.85"
         style="fill:#741519;fill-opacity:1;fill-rule:nonzero;stroke:none"
         id="path56"
         inkscape:connector-curvature="0" /><path
         d="m 2888.8,7742.23 c 68.26,-64.1 142.2,-105.18 224.09,-108.22 104.33,-3.88 204.11,82.46 289.41,213.87 -206.19,157.25 -425.93,58.13 -513.5,-105.65"
         style="fill:#f14a5f;fill-opacity:1;fill-rule:nonzero;stroke:none"
         id="path58"
         inkscape:connector-curvature="0" /><path
         d="m 3274.12,7912.64 c -13.83,-66.37 -102.25,-214.15 -306.55,-231.47 45.91,-28.5 94.48,-45.64 146.17,-47.53 104.23,-3.88 204.11,82.37 289.32,213.86 -26.22,18.84 -103.76,64.76 -128.94,65.14"
         style="fill:#f14256;fill-opacity:1;fill-rule:nonzero;stroke:none"
         id="path60"
         inkscape:connector-curvature="0" /><path
         d="m 3202.35,7638.66 c -30.01,-12.6 -60.21,-18.37 -89.93,-17.33 -79.25,2.94 -155.17,39.38 -231.95,111.43 l -6.72,6.44 4.35,8.14 c 39.95,74.79 104.05,133.58 180.35,165.58 115.69,48.38 240.37,28.5 351.14,-55.95 l 8.99,-6.82 -6.15,-9.37 c -67.41,-104.04 -138.13,-172.02 -210.08,-202.12 m -298.4,105.46 c 69.96,-63.71 138.5,-96 209.32,-98.55 90.03,-3.32 184.04,65.7 272.56,198.9 -101.21,73.19 -213.77,89.66 -318.1,46.01 -68.35,-28.59 -126.29,-80.37 -163.78,-146.36"
         style="fill:#d93846;fill-opacity:1;fill-rule:nonzero;stroke:none"
         id="path62"
         inkscape:connector-curvature="0" /><path
         d="m 3202.54,7639.42 c -30.01,-12.5 -60.3,-18.28 -90.03,-17.23 -240.56,8.89 -413.9,331.82 -566.89,616.69 -79.43,148.16 -154.51,287.99 -230.91,370.26 l -18.46,19.98 27.17,0.28 c 8.9,0.19 893.8,13.45 1331.94,41.19 l 13.73,0.85 -0.76,-13.64 c -23.48,-398.47 -227.59,-918.6 -465.79,-1018.38 m -852.42,966.22 c 72.23,-85.77 142.67,-216.99 216.89,-355.3 149.87,-279.19 319.71,-595.58 546.35,-603.92 26.23,-1.04 53.02,4.17 79.81,15.44 223.9,93.62 423.56,601.73 449.98,983.64 -399.52,-24.43 -1143.92,-37.49 -1293.03,-39.86"
         style="fill:#07090b;fill-opacity:1;fill-rule:nonzero;stroke:none"
         id="path64"
         inkscape:connector-curvature="0" /><path
         d="m 2751.53,10029.5 c 142.85,142.9 360.98,156.4 487.08,30.3 126.2,-126.2 112.57,-344.23 -30.29,-487.09 -142.86,-142.86 -360.89,-156.4 -486.99,-30.29 -126.2,126.1 -112.66,344.22 30.2,487.08"
         style="fill:#544d6a;fill-opacity:1;fill-rule:nonzero;stroke:none"
         id="path66"
         inkscape:connector-curvature="0" /><path
         d="m 2656.86,9636.61 c 78.57,-164.82 271.61,-234.5 431.13,-155.64 159.43,78.86 225.13,276.35 146.46,441.17 -78.58,164.86 -271.71,234.56 -431.14,155.66 -159.52,-78.88 -225.03,-276.36 -146.45,-441.19"
         style="fill:#07090b;fill-opacity:1;fill-rule:nonzero;stroke:none"
         id="path68"
         inkscape:connector-curvature="0" /><path
         d="m 2674.84,9645.14 c 73.66,-154.51 254.48,-219.74 404.06,-145.9 149.49,73.94 210.93,259.03 137.28,413.53 -73.66,154.43 -254.57,219.73 -404.06,145.83 -149.49,-73.88 -210.93,-259.05 -137.28,-413.46"
         style="fill:#ffffff;fill-opacity:1;fill-rule:nonzero;stroke:none"
         id="path70"
         inkscape:connector-curvature="0" /><path
         d="m 2707.98,9665.02 c 61.91,-129.89 214.05,-184.8 339.77,-122.6 125.73,62.1 177.42,217.74 115.51,347.63 -62.01,129.85 -214.15,184.85 -339.78,122.65 -125.73,-62.15 -177.42,-217.79 -115.5,-347.68"
         style="fill:#3cbfdb;fill-opacity:1;fill-rule:nonzero;stroke:none"
         id="path72"
         inkscape:connector-curvature="0" /><path
         d="m 2762.89,9701.93 c 47.71,-100.16 165.01,-142.48 261.86,-94.57 96.85,47.9 136.71,167.85 88.99,268.02 -47.81,100.06 -165.01,142.42 -261.96,94.48 -96.84,-47.91 -136.7,-167.86 -88.89,-267.93"
         style="fill:#07090b;fill-opacity:1;fill-rule:nonzero;stroke:none"
         id="path74"
         inkscape:connector-curvature="0" /><path
         d="m 3023.24,9969.86 c -28.41,-10.79 -42.04,-43.08 -30.58,-72.05 11.54,-28.97 43.92,-43.73 72.13,-32.94 28.41,10.79 42.13,43.07 30.68,72.04 -11.55,28.97 -43.93,43.74 -72.23,32.95"
         style="fill:#ffffff;fill-opacity:1;fill-rule:nonzero;stroke:none"
         id="path76"
         inkscape:connector-curvature="0" /><path
         d="m 2903.95,9866.67 c -18.65,-7.1 -27.65,-28.31 -20.07,-47.34 7.57,-19.12 28.87,-28.78 47.52,-21.68 18.65,7.1 27.65,28.31 20.07,47.34 -7.57,19.12 -28.87,28.77 -47.52,21.68"
         style="fill:#ffffff;fill-opacity:1;fill-rule:nonzero;stroke:none"
         id="path78"
         inkscape:connector-curvature="0" /><path
         d="m 3282.64,10093.9 c -453.39,-599.2 -1365.65,-214.36 -1653.45,-839.38 -146.93,-319.05 12.02,-990.94 705.4,-733.62 381.72,-273.69 1080.59,-270.09 1504.34,153.47 l -556.29,1419.53"
         style="fill:#675e7b;fill-opacity:1;fill-rule:nonzero;stroke:none"
         id="path80"
         inkscape:connector-curvature="0" /><path
         d="m 1905.16,9469.05 c 355.3,206.1 1161.62,120.04 1309.98,566.55 l -1.81,3.7 c -430.47,-564.29 -1295.96,-159.66 -1583.76,-784.78 -58.22,-126.48 -68.26,-308.44 -16,-465.98 -51.69,340.07 83.22,559.71 291.59,680.51"
         style="fill:#9b95a8;fill-opacity:1;fill-rule:nonzero;stroke:none"
         id="path82"
         inkscape:connector-curvature="0" /><path
         d="m 3198.58,10050.4 c -105.11,-137.7 -236.04,-216.01 -379.86,-266.46 -107.83,-37.77 -222.76,-59.53 -338.16,-78.04 -173.1,-27.85 -347.17,-48.13 -500.13,-106.61 -76.45,-29.27 -147.65,-68.26 -210.14,-122.73 -62.51,-54.45 -116.13,-124.35 -157.6,-214.47 -33.96,-73.83 -51.84,-164.37 -51.87,-258.28 0.06,-131.83 35.28,-270.62 114.43,-377.88 39.58,-53.57 90.28,-99.14 152.77,-131.16 62.46,-32.04 136.55,-50.42 222.28,-50.4 85.34,0.01 182.2,18.12 291.4,58.63 l -6.54,17.62 -10.95,-15.27 c 173.06,-124.02 407.93,-191.55 653.47,-191.61 308.61,0.01 634.85,107.03 875.01,347.05 7.34,7.34 7.34,19.24 0,26.58 -7.34,7.34 -19.23,7.34 -26.57,0 -231.79,-231.81 -548.29,-336.05 -848.44,-336.04 -238.67,-0.06 -466.5,66.07 -631.57,184.56 l -8.12,5.83 -9.37,-3.48 c -105.84,-39.28 -198.33,-56.29 -278.32,-56.28 -80.4,0.02 -148.2,17.09 -205.14,46.26 -85.32,43.76 -146.78,115.11 -187.27,199.68 -40.45,84.5 -59.5,182.04 -59.48,275.91 -0.03,89.1 17.19,174.85 48.42,242.56 35.08,76.16 78.64,136.1 128.96,184.32 88,84.3 197.36,133.07 319.34,166.16 182.86,49.71 393.02,63.19 594.24,110.72 100.62,23.82 199.09,56.28 290.68,106.62 91.57,50.32 176.16,118.64 248.41,213.41 6.3,8.2 4.71,20 -3.54,26.3 -8.25,6.3 -20.04,4.7 -26.33,-3.5"
         style="fill:#07090b;fill-opacity:1;fill-rule:nonzero;stroke:none"
         id="path84"
         inkscape:connector-curvature="0" /><path
         d="m 3908.42,8519.48 c -14.67,118.82 -127.71,231.19 -228.07,226.84 0,0 84.83,35.59 162.08,-48.28 82.36,-77.63 65.99,-178.56 65.99,-178.56"
         style="fill:#07090b;fill-opacity:1;fill-rule:nonzero;stroke:none"
         id="path86"
         inkscape:connector-curvature="0" /><path
         d="m 2082.2,9351.65 c 82.45,-39.48 101.48,-160 179.3,-166.15 73.56,-5.87 162.56,138.13 261.58,163.59 94.96,24.33 241.79,112.95 183.76,222.48 -148.92,280.42 -753.5,188.21 -780.57,-46.67 -9.28,-80.47 79.53,-136.61 155.93,-173.25"
         style="fill:#4c4e50;fill-opacity:1;fill-rule:nonzero;stroke:none"
         id="path88"
         inkscape:connector-curvature="0" /><path
         d="m 2699.46,9585.49 c -169.08,-161.51 -647.56,-174.86 -759.74,-16 -6.44,-14.1 -10.79,-28.87 -12.6,-44.21 -9.27,-80.38 79.62,-136.61 155.93,-173.16 82.46,-39.57 101.58,-159.99 179.31,-166.24 73.56,-5.87 162.64,138.13 261.58,163.59 94.95,24.43 241.79,113.04 183.76,222.58 -2.47,4.63 -5.5,8.99 -8.24,13.44"
         style="fill:#222324;fill-opacity:1;fill-rule:nonzero;stroke:none"
         id="path90"
         inkscape:connector-curvature="0" /><path
         d="m 2410.71,9643.24 c 0.66,-21.02 -65.99,-40.14 -148.92,-42.7 -82.84,-2.55 -150.62,12.4 -151.29,33.33 -0.66,21.11 65.99,40.14 148.92,42.79 82.84,2.46 150.62,-12.4 151.29,-33.42"
         style="fill:#777b7d;fill-opacity:1;fill-rule:nonzero;stroke:none"
         id="path92"
         inkscape:connector-curvature="0" /><path
         d="m 7021.23,2216.22 c 141.63,214.34 -264.98,383.61 -401.59,405.96 99.97,305.51 -296.23,309.67 -372.26,342.8 -76.01,33.14 -88.7,203.55 -395.25,200.7 121.46,478.58 58.5,935.75 -141.92,1139.39 L 5074.4,4551.03 C 4767.57,4104.27 4346.27,2938 4928.13,2152.13 5538.86,1327 7405.79,1677.5 7517.6,1924.3 c 111.9,246.95 -398,269.77 -496.37,291.92"
         style="fill:#544d6a;fill-opacity:1;fill-rule:nonzero;stroke:none"
         id="path94"
         inkscape:connector-curvature="0" /><path
         d="m 7385.72,1900 c -11.74,-46.2 -84.07,-95.1 -197.67,-138.9 -463.04,-171.4 -1763.08,-279.6 -2259.26,390.75 -581.85,785.87 -160.37,1952.23 146.37,2398.89 l 635.81,-245.86 c 200.24,-331.82 13.45,-1280.82 -502.42,-2042.26 170.88,136.79 569.93,0.85 564.53,419.29 150.43,99.98 208.65,-39.66 243.97,-55 76.11,-33.13 350.66,100.54 250.6,-204.96 136.71,-22.34 509.23,-210.27 367.52,-424.75 98.45,-22.1 799.88,96.24 750.55,-97.2"
         style="fill:#817896;fill-opacity:1;fill-rule:nonzero;stroke:none"
         id="path96"
         inkscape:connector-curvature="0" /><path
         d="m 7385.72,1900 c -11.74,-46.2 -84.07,-95.1 -197.67,-138.9 -332.31,-112.6 -1565.78,-113.5 -2062.05,557 -581.76,785.86 -280.9,1834.36 -50.84,2232.64 l 635.81,-245.86 c 200.24,-331.82 188.21,-1143.16 -327.65,-1904.52 170.88,136.71 345.55,378.03 376.12,503.85 150.44,100.07 345.28,-75.93 380.49,-91.36 76.03,-33.13 374.62,1.9 274.55,-303.61 136.61,-22.35 540.68,-170.23 399.05,-384.56 98.35,-22.25 621.52,-31.24 572.19,-224.68"
         style="fill:#675e7b;fill-opacity:1;fill-rule:nonzero;stroke:none"
         id="path98"
         inkscape:connector-curvature="0" /><path
         d="m 5059.28,4561.47 c -122.96,-179.32 -262.96,-470.59 -351.64,-807.15 -53.66,-204.11 -88.35,-424.78 -88.36,-647 0,-118.65 9.89,-237.74 32.12,-354.96 40.76,-215.16 123.14,-424.09 262.01,-611.6 l -0.06,0.07 c 7.22,-9.84 14.7,-19.47 22.36,-28.87 l -0.08,0.1 3.88,-4.83 c 7.05,-8.78 14.21,-17.41 21.62,-25.88 l 0.1,-0.12 6.82,-7.66 0.02,-0.03 c 4.82,-5.4 9.77,-10.83 14.85,-16.21 l 13.66,12.91 -13.83,-12.73 c 8.01,-8.69 16.13,-17 24.23,-25.19 l 0.07,-0.07 2.18,-2.18 c 158.64,-158.27 367.6,-262.47 594.98,-327.17 227.42,-64.8 473.51,-90.2 707.6,-90.2 194.06,0 379.86,17.5 539.98,44.7 l -3.15,18.5 2.9,-18.5 c 180.07,28.1 338.29,68 457.47,112.5 59.61,22.3 109.45,45.6 147.73,69.7 19.15,12.1 35.42,24.3 48.62,37 13.17,12.6 23.39,25.7 29.83,39.8 11.83,26.1 17.61,50.8 17.61,74 0.04,26.79 -7.84,51.25 -21.36,72.2 -23.76,36.77 -63.18,63.29 -109.04,84.16 -68.91,31.16 -153.75,49.54 -228.92,62.17 -37.56,6.29 -72.68,11.09 -101.91,15.12 -29.16,4.01 -52.74,7.35 -65.84,10.32 l -4.12,-18.33 15.68,-10.37 c 22.23,33.55 32.71,67.56 32.67,100.39 0.01,24.19 -5.62,47.49 -15.36,69.33 -17.1,38.25 -46.44,72.23 -81.86,102.47 -53.2,45.31 -120.53,82.38 -184.53,110.09 -64.1,27.66 -124.46,45.82 -165.18,52.49 l -3.02,-18.55 17.86,-5.84 c 11.6,35.44 17.02,67.6 17.02,96.87 0.01,29.3 -5.49,55.67 -15.42,78.95 -17.39,40.82 -47.95,71.5 -83.51,94.61 -53.45,34.7 -118.68,53.59 -175.94,66.79 -28.61,6.56 -55.26,11.64 -77.18,16.22 -10.96,2.28 -20.73,4.45 -28.85,6.56 -8.1,2.09 -14.61,4.2 -18.6,5.96 l -0.02,0.01 c -6.8,2.96 -13.49,7.72 -20.62,14.47 -12.49,11.76 -25.74,29.54 -42.21,49.67 -24.72,30.18 -57.35,65.51 -109.33,92.52 -51.97,27.08 -122.68,45.67 -223.08,45.65 -2.54,0 -5.12,-0.01 -7.72,-0.04 l 0.19,-18.79 18.22,-4.62 c 42.13,166.28 62.26,330.01 62.26,481.89 -0.01,144.59 -18.23,278.44 -53.34,393.65 -35.14,115.18 -87.14,211.88 -155.55,281.54 l -0.12,0.11 -0.1,0.1 c -7.34,7.34 -19.23,7.34 -26.57,0 -7.34,-7.34 -7.34,-19.24 0,-26.58 l 0.1,-0.09 -0.12,0.11 c 62.87,-63.91 112.61,-155.21 146.41,-266.15 33.82,-110.9 51.72,-241.27 51.71,-382.69 0,-148.56 -19.72,-309.32 -61.12,-472.66 l -5.99,-23.64 24.4,0.24 c 2.46,0.02 4.91,0.03 7.34,0.03 73.05,0 127.67,-10.24 169.73,-25.6 63.02,-23.15 98.47,-57.4 126.73,-90.55 14.11,-16.59 26.21,-32.94 39.04,-47.51 12.81,-14.46 26.61,-27.56 44.72,-35.51 l -0.02,0.01 c 10.75,-4.65 23.77,-8 39.47,-11.57 27.33,-6.14 62.38,-12.37 99.79,-21.23 56.07,-13.21 117.15,-32.58 162.45,-64.22 22.69,-15.8 41.41,-34.45 54.47,-56.78 13.05,-22.36 20.75,-48.5 20.79,-80.86 0.01,-24.6 -4.56,-52.82 -15.15,-85.18 l -6.83,-20.87 21.67,-3.52 c 27.37,-4.43 68.17,-15.62 113.11,-32.48 67.48,-25.25 144.75,-63.4 203.86,-109.85 29.58,-23.18 54.55,-48.41 71.74,-74.55 17.22,-26.2 26.66,-52.91 26.67,-80.41 -0.04,-24.89 -7.6,-51.09 -26.43,-79.66 l -15.03,-22.72 26.58,-5.98 c 12.26,-2.75 28.77,-5.25 49.01,-8.11 35.33,-4.99 81.67,-10.92 131.36,-19.53 74.46,-12.85 156.47,-31.96 217.95,-61.71 30.75,-14.81 56.16,-32.22 73.19,-51.75 8.55,-9.77 15.05,-20.01 19.45,-30.89 4.39,-10.89 6.75,-22.44 6.76,-35.31 0,-16.9 -4.19,-36.2 -14.25,-58.5 -3.69,-8.2 -10.81,-17.9 -21.6,-28.2 -18.84,-18.1 -48.62,-37.8 -87.36,-57.3 -58.14,-29.2 -136.4,-58.2 -229.21,-84.3 -92.82,-26.1 -200.23,-49.4 -317.05,-67.6 h -0.09 -0.16 c -158,-26.9 -341.88,-44.2 -533.68,-44.2 -231.36,0 -474.28,25.2 -697.31,88.7 -223.09,63.5 -426.06,165.3 -578.71,317.66 l -2.16,2.17 0.07,-0.08 c -7.99,8.08 -15.78,16.07 -23.3,24.23 l -0.17,0.18 c -4.76,5.03 -9.47,10.2 -14.11,15.41 l 0.02,-0.03 -6.82,7.67 0.1,-0.12 c -6.98,7.99 -13.82,16.22 -20.6,24.67 l -3.89,4.83 -0.11,0.15 0.03,-0.04 c -7.3,8.95 -14.39,18.08 -21.18,27.35 l -0.06,0.08 c -135.11,182.47 -215.38,385.75 -255.28,596.23 -21.74,114.64 -31.46,231.4 -31.46,347.96 -0.01,218.3 34.13,435.92 87.12,637.43 87.42,332.2 226.32,620.7 346.28,795.46 5.87,8.56 3.69,20.25 -4.86,26.13 -8.56,5.87 -20.26,3.69 -26.13,-4.87"
         style="fill:#07090b;fill-opacity:1;fill-rule:nonzero;stroke:none"
         id="path100"
         inkscape:connector-curvature="0" /><path
         d="m 5843.82,3169.29 c 0,0 -0.17,-0.46 -0.53,-1.45 -5.56,-15.27 -54.85,-148.84 -130.36,-300.25 -37.74,-75.69 -82.05,-155.84 -130.52,-227.75 -48.43,-71.91 -101.18,-135.52 -154.75,-178.1 -8.13,-6.47 -9.47,-18.29 -3,-26.41 6.46,-8.12 18.28,-9.47 26.4,-3 60.14,47.92 116.23,116.98 167.32,193.67 76.54,115.04 141.54,247.42 187.61,351.25 46.05,103.82 73.09,179.03 73.2,179.33 3.51,9.77 -1.57,20.53 -11.33,24.04 -9.77,3.51 -20.53,-1.56 -24.04,-11.33"
         style="fill:#07090b;fill-opacity:1;fill-rule:nonzero;stroke:none"
         id="path102"
         inkscape:connector-curvature="0" /><path
         d="m 4905.41,4249.66 v 0.01 c -0.79,0.91 -24.42,29.17 -47.63,76.27 -23.24,47.12 -45.96,112.91 -45.94,189.19 0,36.4 5.13,75.22 17.87,115.86 3.1,9.9 -2.41,20.45 -12.31,23.55 -9.9,3.11 -20.45,-2.4 -23.55,-12.31 -13.94,-44.42 -19.6,-87.17 -19.6,-127.1 0.02,-85.14 25.6,-157.3 51.02,-208.22 25.45,-50.93 50.84,-80.79 51.54,-81.63 6.73,-7.9 18.6,-8.84 26.5,-2.11 7.89,6.73 8.84,18.59 2.11,26.49"
         style="fill:#07090b;fill-opacity:1;fill-rule:nonzero;stroke:none"
         id="path104"
         inkscape:connector-curvature="0" /><path
         d="m 5485.65,9241.83 c -10.03,-190.67 -140.49,-381.43 -331.35,-321.22 -187.64,59.26 -307.3,186.79 -310.99,190.76 l -0.1,0.1 170.69,471.75 c 0,0 481.79,-150.62 471.75,-341.39"
         style="fill:#675e7b;fill-opacity:1;fill-rule:nonzero;stroke:none"
         id="path106"
         inkscape:connector-curvature="0" /><path
         d="m 5485.65,9241.83 c -10.03,-190.67 -140.49,-381.43 -331.35,-321.22 -187.64,59.26 -307.3,186.79 -310.99,190.76 122.12,-70.34 239.33,-76.58 314.31,-88.99 74.98,-12.59 224.84,149.87 181.1,268.59 -43.73,118.62 -324.82,292.25 -324.82,292.25 0,0 481.79,-150.62 471.75,-341.39"
         style="fill:#544d6a;fill-opacity:1;fill-rule:nonzero;stroke:none"
         id="path108"
         inkscape:connector-curvature="0" /><path
         d="m 5008.58,9564.71 1.24,-0.4 c 13.26,-4.2 130.21,-42.28 242.64,-101.28 56.19,-29.44 111.21,-64.21 151.16,-101.63 19.98,-18.68 36.15,-37.98 47.05,-57.17 10.93,-19.23 16.62,-38.11 16.62,-56.99 0,-1.61 -0.04,-3.26 -0.12,-4.95 v 0.05 c -4.13,-79.74 -30.57,-159.83 -73.25,-218.64 -21.31,-29.44 -46.57,-53.55 -74.86,-70.19 -28.33,-16.64 -59.59,-25.96 -94.14,-25.99 -20.32,0 -41.83,3.26 -64.59,10.44 -92.69,29.3 -168.79,75.89 -221.53,115.15 -26.37,19.62 -46.9,37.39 -60.76,50.18 -6.93,6.39 -12.19,11.54 -15.68,15.04 -1.75,1.76 -3.05,3.1 -3.9,3.99 l -0.93,0.98 -0.21,0.22 -0.03,0.03 c -7.04,7.63 -18.93,8.09 -26.55,1.05 -7.62,-7.04 -8.09,-18.93 -1.05,-26.55 0.59,-0.64 31.49,-34.03 86.67,-75.09 55.19,-41.05 134.68,-89.83 232.65,-120.84 26.14,-8.25 51.55,-12.19 75.91,-12.18 41.45,-0.03 79.71,11.43 113.2,31.18 50.31,29.65 90.06,77.39 118.25,133.47 28.18,56.13 44.9,120.84 48.33,185.78 v 0.05 c 0.12,2.25 0.18,4.52 0.18,6.82 0.01,27.48 -8.67,53.69 -22.86,77.86 -24.92,42.32 -66.37,79.47 -114.18,112.68 -71.77,49.67 -158.44,90.08 -227.45,118.39 -68.99,28.27 -120.24,44.3 -120.6,44.41 -9.91,3.1 -20.45,-2.42 -23.54,-12.33 -3.1,-9.9 2.42,-20.44 12.33,-23.54"
         style="fill:#07090b;fill-opacity:1;fill-rule:nonzero;stroke:none"
         id="path110"
         inkscape:connector-curvature="0" /><path
         d="m 2347.14,8534.74 -5.07,-5.96 5.09,5.95 -0.02,0.01 -5.07,-5.96 5.09,5.95 c -0.19,0.14 -37.06,31.83 -73.51,89.44 -36.49,57.67 -72.5,140.86 -72.5,245.13 0,10.38 -8.42,18.79 -18.79,18.79 -10.38,0 -18.79,-8.41 -18.79,-18.79 0,-113.99 39.72,-204.74 79.25,-266.69 39.57,-62.02 78.99,-95.64 79.98,-96.5 7.9,-6.72 19.76,-5.76 26.48,2.14 6.73,7.91 5.77,19.77 -2.13,26.49"
         style="fill:#07090b;fill-opacity:1;fill-rule:nonzero;stroke:none"
         id="path112"
         inkscape:connector-curvature="0" /><path
         d="m 2082.2,9351.65 -8.12,-16.95 c 17.46,-8.35 32.16,-21.3 45.74,-37.07 20.41,-23.58 37.5,-53.15 57.75,-78.92 10.18,-12.86 21.28,-24.88 34.76,-34.36 13.4,-9.47 29.49,-16.19 47.69,-17.59 1.96,-0.15 3.94,-0.23 5.9,-0.23 12.1,0.01 23.78,2.87 34.96,7.38 19.58,7.94 38.06,20.82 56.73,35.67 27.92,22.3 56.23,49.36 84.99,72.45 28.71,23.16 57.81,41.94 85.16,48.86 42.51,10.96 93.37,33.3 135.18,65.02 20.87,15.89 39.49,34.18 53.27,55.13 13.74,20.89 22.61,44.81 22.6,70.63 0.02,19.2 -4.96,39.11 -15.36,58.7 l -0.01,0.02 c -34.72,65.41 -92.43,111.46 -160.12,140.79 -67.78,29.37 -145.84,42.5 -223.95,42.53 -101.68,-0.06 -203.51,-22.22 -283.42,-62.2 -39.94,-20.03 -74.47,-44.56 -100.51,-73.68 -26.01,-29.06 -43.52,-63.1 -47.84,-100.78 -0.53,-4.6 -0.8,-9.18 -0.8,-13.72 -0.02,-22.15 6.35,-42.76 16.68,-60.96 15.55,-27.38 39.53,-49.85 66.25,-69.1 26.76,-19.22 56.5,-35.2 84.34,-48.56 l 8.13,16.94 8.12,16.95 c -35.56,17.01 -73.39,38.31 -101.19,63.13 -13.91,12.38 -25.27,25.56 -32.93,39.14 -7.68,13.63 -11.79,27.46 -11.82,42.46 0,3.06 0.19,6.19 0.56,9.41 3.33,28.74 16.55,55.4 38.53,80.05 32.87,36.91 85.61,68.23 148.4,89.76 62.76,21.6 135.38,33.59 207.5,33.57 73.89,0.02 147.21,-12.59 208.99,-39.42 61.87,-26.89 111.89,-67.5 141.88,-123.94 l 2.2,-4.15 -2.21,4.17 c 7.83,-14.83 10.97,-28.31 10.99,-41.11 -0.01,-17.13 -5.75,-33.69 -16.43,-50.01 -15.94,-24.41 -43.19,-47.31 -73.82,-65.44 -30.58,-18.19 -64.44,-31.74 -92.55,-38.92 -27.71,-7.17 -53.17,-21.81 -77.22,-39.07 -35.99,-25.93 -69.19,-58.17 -99.53,-83.18 -15.12,-12.51 -29.48,-23.16 -42.44,-30.31 -12.99,-7.22 -24.26,-10.67 -33.31,-10.62 -1,0 -1.97,0.03 -2.92,0.11 -7.37,0.6 -13.74,2.44 -19.93,5.45 -10.78,5.22 -21.15,14.44 -31.56,26.86 -15.66,18.55 -30.86,43.73 -49.31,68.29 -18.48,24.47 -40.66,48.77 -71.89,63.77 l -8.11,-16.95"
         style="fill:#07090b;fill-opacity:1;fill-rule:nonzero;stroke:none"
         id="path114"
         inkscape:connector-curvature="0" /><path
         d="m 2814.8,9128.72 0.22,0.04 c 5.37,1.04 106.86,20.1 260.77,20.1 230.9,0.03 579.21,-42.96 899.12,-252.31 8.69,-5.68 20.33,-3.24 26.02,5.44 5.68,8.69 3.24,20.33 -5.44,26.02 -328.65,214.9 -684.34,258.4 -919.7,258.43 -162.07,0 -267.35,-20.67 -268.25,-20.84 -10.18,-2.01 -16.81,-11.89 -14.81,-22.07 2.01,-10.18 11.88,-16.81 22.07,-14.81"
         style="fill:#07090b;fill-opacity:1;fill-rule:nonzero;stroke:none"
         id="path116"
         inkscape:connector-curvature="0" /><path
         d="m 2787.64,9008.49 1.31,-0.26 c 13.89,-2.82 136.25,-28.12 292.21,-76.78 155.93,-48.6 345.54,-120.77 493.19,-216.16 8.72,-5.63 20.35,-3.13 25.98,5.59 5.63,8.72 3.13,20.35 -5.59,25.98 -157.55,101.66 -357.05,175.88 -517.55,225.16 -160.46,49.21 -281.82,73.25 -282.25,73.34 -10.18,2.01 -20.07,-4.6 -22.09,-14.79 -2.01,-10.18 4.61,-20.06 14.79,-22.08"
         style="fill:#07090b;fill-opacity:1;fill-rule:nonzero;stroke:none"
         id="path118"
         inkscape:connector-curvature="0" /><path
         d="m 2710.47,8916.69 c 0.01,0 2.48,-0.99 7.29,-2.94 36.03,-14.66 200.71,-82.68 380.77,-173.55 90.01,-45.42 183.88,-96.56 267.29,-149.45 83.38,-52.83 156.35,-107.61 204.1,-159.13 7.06,-7.6 18.95,-8.05 26.55,-0.99 7.61,7.07 8.06,18.96 1,26.56 -55.05,59.22 -136.72,118.89 -228.64,176.04 -137.84,85.61 -298.73,165.05 -425.35,223.25 -126.59,58.17 -218.86,95.03 -219.07,95.12 -9.64,3.85 -20.57,-0.85 -24.42,-10.48 -3.85,-9.64 0.84,-20.58 10.48,-24.43"
         style="fill:#07090b;fill-opacity:1;fill-rule:nonzero;stroke:none"
         id="path120"
         inkscape:connector-curvature="0" /><path
         d="m 1857.12,9240.73 c -1.11,0.31 -258.44,85.85 -567.17,85.92 -95.06,0 -195.02,-8.13 -293.927,-29.53 -10.144,-2.2 -16.585,-12.2 -14.39,-22.35 2.195,-10.14 12.199,-16.58 22.347,-14.39 95.7,20.72 193.05,28.69 285.97,28.69 150.91,0 290.05,-21.03 391.29,-42.09 50.61,-10.53 91.76,-21.05 120.18,-28.92 14.21,-3.93 25.24,-7.21 32.68,-9.48 3.73,-1.14 6.55,-2.03 8.43,-2.63 0.94,-0.3 1.64,-0.53 2.1,-0.68 l 0.64,-0.21 c 9.85,-3.27 20.49,2.06 23.76,11.91 3.27,9.85 -2.06,20.49 -11.91,23.76"
         style="fill:#07090b;fill-opacity:1;fill-rule:nonzero;stroke:none"
         id="path122"
         inkscape:connector-curvature="0" /><path
         d="m 1776.78,9106.79 c -0.74,0.13 -209.4,47.68 -424.32,47.74 -80.64,-0.02 -162.23,-6.68 -234.6,-25.54 -10.05,-2.62 -16.06,-12.89 -13.44,-22.93 2.62,-10.04 12.88,-16.06 22.93,-13.44 67.76,17.7 146.58,24.34 225.11,24.32 104.74,0.01 208.99,-11.7 286.87,-23.43 38.95,-5.86 71.31,-11.72 93.9,-16.11 11.29,-2.19 20.14,-4.02 26.14,-5.29 3,-0.64 5.29,-1.13 6.82,-1.47 1.53,-0.34 2.26,-0.5 2.26,-0.5 10.12,-2.3 20.19,4.03 22.49,14.15 2.3,10.12 -4.04,20.19 -14.16,22.5"
         style="fill:#07090b;fill-opacity:1;fill-rule:nonzero;stroke:none"
         id="path124"
         inkscape:connector-curvature="0" /><path
         d="m 1797.35,8962.3 c -0.44,0.04 -136.62,14.69 -312.29,14.7 -131.78,-0.02 -285.71,-8.2 -421.87,-37.36 -10.15,-2.17 -16.62,-12.16 -14.44,-22.31 2.17,-10.15 12.16,-16.61 22.31,-14.44 131.94,28.3 283.83,36.54 414,36.52 86.8,0 163.98,-3.63 219.4,-7.25 27.71,-1.82 49.98,-3.63 65.3,-4.99 7.66,-0.67 13.58,-1.24 17.57,-1.63 3.99,-0.39 6,-0.61 6,-0.61 10.32,-1.11 19.59,6.35 20.7,16.67 1.11,10.32 -6.36,19.59 -16.68,20.7"
         style="fill:#07090b;fill-opacity:1;fill-rule:nonzero;stroke:none"
         id="path126"
         inkscape:connector-curvature="0" /><path
         d="m 3506.06,9900.75 c 180.07,180.05 454.99,197.15 613.95,38.15 159.05,-158.95 141.91,-433.88 -38.15,-614.04 -180.07,-180.07 -454.99,-197.2 -613.95,-38.15 -159.05,159.05 -141.91,433.97 38.15,614.04"
         style="fill:#544d6a;fill-opacity:1;fill-rule:nonzero;stroke:none"
         id="path128"
         inkscape:connector-curvature="0" /><path
         d="m 3386.78,9405.61 c 99.12,-207.71 342.42,-295.66 543.51,-196.16 201.08,99.41 283.73,348.4 184.7,556.11 -99.02,207.8 -342.43,295.54 -543.51,196.25 -201.08,-99.41 -283.73,-348.49 -184.7,-556.2"
         style="fill:#07090b;fill-opacity:1;fill-rule:nonzero;stroke:none"
         id="path130"
         inkscape:connector-curvature="0" /><path
         d="m 3409.5,9416.03 c 92.87,-194.74 321.03,-277.01 509.43,-183.85 188.49,93.16 265.93,326.52 173.06,521.26 -92.78,194.74 -320.94,276.96 -509.34,183.85 -188.49,-93.15 -265.93,-326.52 -173.15,-521.26"
         style="fill:#ffffff;fill-opacity:1;fill-rule:nonzero;stroke:none"
         id="path132"
         inkscape:connector-curvature="0" /><path
         d="m 3467.25,9410.35 c 78.01,-163.69 269.91,-232.99 428.29,-154.6 158.48,78.29 223.71,274.55 145.61,438.24 -78.2,163.78 -269.91,232.99 -428.39,154.6 -158.48,-78.3 -223.62,-274.55 -145.51,-438.24"
         style="fill:#3cbfdb;fill-opacity:1;fill-rule:nonzero;stroke:none"
         id="path134"
         inkscape:connector-curvature="0" /><path
         d="m 3541.09,9408.46 c 60.21,-126.2 208,-179.6 330.12,-119.2 122.13,60.4 172.4,211.69 112.19,337.89 -60.21,126.19 -207.99,179.5 -330.12,119.1 -122.13,-60.31 -172.4,-211.6 -112.19,-337.79"
         style="fill:#07090b;fill-opacity:1;fill-rule:nonzero;stroke:none"
         id="path136"
         inkscape:connector-curvature="0" /><path
         d="m 3929.25,9689.63 c -35.7,-13.63 -53.02,-54.34 -38.44,-90.79 14.48,-36.64 55.29,-55.2 91.07,-41.56 35.79,13.63 52.92,54.24 38.44,90.88 -14.49,36.45 -55.29,55.1 -91.07,41.47"
         style="fill:#ffffff;fill-opacity:1;fill-rule:nonzero;stroke:none"
         id="path138"
         inkscape:connector-curvature="0" /><path
         d="m 3778.72,9559.93 c -23.48,-9 -34.84,-35.69 -25.38,-59.74 9.66,-24.05 36.45,-36.26 59.93,-27.27 23.58,8.9 34.85,35.69 25.38,59.74 -9.57,24.05 -36.36,36.26 -59.93,27.27"
         style="fill:#ffffff;fill-opacity:1;fill-rule:nonzero;stroke:none"
         id="path140"
         inkscape:connector-curvature="0" /></g></g></svg>